<svg width="46" height="82" viewBox="0 0 46 82" fill="none" xmlns="http://www.w3.org/2000/svg">
<path d="M1.98006 68.361C0.658878 69.0681 0.212161 70.6136 1.07914 71.8642C1.84193 73.089 3.5091 73.5031 4.8582 72.6994C5.01824 72.5321 24.3913 61.9185 42.6415 59.826C43.7951 59.6984 44.6995 58.8878 44.9787 57.9218C45.0625 57.6321 45.07 57.2198 45.0495 56.9042C44.8915 55.519 43.496 54.5513 41.8977 54.6719C22.5701 57.0145 2.77277 67.9367 1.98006 68.361Z" fill="#192C2A"/>
<path d="M1.98055 13.4559C0.659366 12.7487 0.212649 11.2033 1.07963 9.95265C1.84242 8.7279 3.50959 8.31378 4.85869 9.11748C5.01873 9.28479 24.3918 19.8983 42.642 21.9909C43.7956 22.1185 44.7 22.9291 44.9792 23.895C45.063 24.1848 45.0705 24.597 45.05 24.9127C44.892 26.2978 43.4965 27.2656 41.8982 27.145C22.5706 24.8024 2.77326 13.8801 1.98055 13.4559Z" fill="#192C2A"/>
<path d="M13.1058 39.6876L37.8009 45.8216C39.2596 46.184 40.8451 45.3355 41.2359 43.9832C41.6268 42.6309 40.7115 41.1612 39.2527 40.7988L14.5577 34.6648C13.0989 34.3025 11.5135 35.151 11.1226 36.5033C10.808 37.9781 11.6471 39.3253 13.1058 39.6876Z" fill="#192C2A"/>
</svg>
