<svg width="46" height="82" viewBox="0 0 46 82" fill="none" xmlns="http://www.w3.org/2000/svg">
<path d="M43.7182 68.361C45.0394 69.0681 45.4861 70.6136 44.6191 71.8642C43.8563 73.089 42.1891 73.5031 40.84 72.6994C40.68 72.5321 21.307 61.9185 3.05676 59.826C1.90309 59.6984 0.998706 58.8878 0.719507 57.9218C0.635747 57.6321 0.628263 57.2198 0.648702 56.9042C0.806735 55.519 2.20219 54.5513 3.80057 54.6719C23.1282 57.0145 42.9255 67.9367 43.7182 68.361Z" fill="#192C2A"/>
<path d="M43.7177 13.4559C45.0389 12.7487 45.4856 11.2033 44.6186 9.95265C43.8558 8.7279 42.1887 8.31378 40.8396 9.11748C40.6795 9.28479 21.3065 19.8983 3.05627 21.9909C1.90261 22.1185 0.998218 22.9291 0.719019 23.895C0.635259 24.1848 0.627775 24.597 0.648214 24.9127C0.806247 26.2978 2.20171 27.2656 3.80008 27.145C23.1277 24.8024 42.925 13.8801 43.7177 13.4559Z" fill="#192C2A"/>
<path d="M32.5924 39.6876L7.89739 45.8216C6.43861 46.184 4.85319 45.3355 4.46231 43.9832C4.07143 42.6309 4.98677 41.1612 6.44555 40.7988L31.1406 34.6648C32.5993 34.3025 34.1848 35.151 34.5757 36.5033C34.8902 37.9781 34.0512 39.3253 32.5924 39.6876Z" fill="#192C2A"/>
</svg>
